#!OML:ASF X:\für Bonn\!DataBase\2005_08_11_Bastian_Final\c3d\Bastian.ASF
:FULLY-SPECIFIED
:DEGREES
78
root 0.242085 17.4954 1.43177 168.54 -2.46966 -175.719
lowerback 11.8802 -2.65441 3.35901
upperback 4.57975 -3.70001 2.2002
thorax -1.90406 -2.09301 0.89934
lowerneck 2.01138 -3.7363 -11.5758
upperneck 0.00806614 -5.21687 8.76739
head 0.212913 -2.64689 4.50194
rclavicle 1.55549e-014 -9.14409e-015
rhumerus -49.1583 31.2689 -52.8045
rradius 28.3921
rwrist -67.8068
rhand -51.4299 -25.6715
rfingers 7.12502
rthumb -23.9609 -54.1963
lclavicle 1.55549e-014 -9.14409e-015
lhumerus -55.5238 -31.7752 50.4677
lradius 21.9604
lwrist 43.1401
lhand -48.3578 38.3347
lfingers 7.12502
lthumb -21.0122 67.2164
rfemur 6.31118 2.23951 28.0472
rtibia 29.3336
rfoot -18.4314 -20.0205
rtoes 0.744385
lfemur 10.1047 0.744861 -14.0756
ltibia 21.4251
lfoot -12.7921 -3.62208
ltoes -14.6552
79
root 0.251905 17.4972 1.46484 168.415 -2.70914 -175.695
lowerback 12.0046 -2.64631 3.48828
upperback 4.88256 -3.72849 2.19791
thorax -1.66126 -2.12298 0.824582
lowerneck 1.06229 -3.95053 -11.6183
upperneck -0.336978 -5.39478 8.80302
head 0.286321 -2.71364 4.4993
rclavicle -3.61043e-014 4.6118e-014
rhumerus -48.6745 30.1322 -57.679
rradius 27.8227
rwrist -68.6362
rhand -51.0701 -25.7188
rfingers 7.12502
rthumb -23.6158 -54.2885
lclavicle -3.61043e-014 4.6118e-014
lhumerus -55.8362 -30.7894 55.9891
lradius 22.2195
lwrist 44.6029
lhand -47.7998 38.171
lfingers 7.12502
lthumb -20.4761 67.1113
rfemur 6.33777 2.0905 28.0789
rtibia 29.2979
rfoot -18.3503 -20.1199
rtoes 0.840883
lfemur 10.0234 0.75962 -13.9892
ltibia 21.4828
lfoot -12.6335 -3.87217
ltoes -14.7776
80
root 0.260037 17.4982 1.50273 168.25 -2.87561 -175.665
lowerback 12.2184 -2.62455 3.70764
upperback 5.18111 -3.72781 2.16665
thorax -1.47708 -2.13841 0.67131
lowerneck 0.184723 -4.16393 -11.6538
upperneck -0.761587 -5.56833 8.8514
head 0.324719 -2.77568 4.50135
rclavicle -7.07425e-014 5.12864e-014
rhumerus -48.6607 30.6152 -63.4206
rradius 27.7896
rwrist -71.1738
rhand -50.9668 -25.5051
rfingers 7.12502
rthumb -23.5168 -54.0876
lclavicle -7.07425e-014 5.12864e-014
lhumerus -55.39 -29.4339 60.7538
lradius 22.2889
lwrist 45.8969
lhand -47.3629 37.7646
lfingers 7.12502
lthumb -20.0561 66.7494
rfemur 6.38069 1.88501 28.0828
rtibia 29.267
rfoot -18.2278 -20.1019
rtoes 0.898398
lfemur 9.97982 0.755371 -13.9115
ltibia 21.5398
lfoot -12.4851 -4.05367
ltoes -14.5848
81
root 0.265308 17.4975 1.54338 167.997 -2.97866 -175.641
lowerback 12.5298 -2.57767 3.95663
upperback 5.49974 -3.6953 2.1509
thorax -1.32294 -2.1414 0.518262
lowerneck -0.724339 -4.3915 -11.8293
upperneck -1.15803 -5.75001 8.99022
head 0.384421 -2.83759 4.55137
rclavicle -7.90169e-015 7.95139e-016
rhumerus -49.353 32.8687 -70.0703
rradius 28.5335
rwrist -75.2773
rhand -51.1912 -25.3249
rfingers 7.12502
rthumb -23.732 -53.8796
lclavicle -7.90169e-015 7.95139e-016
lhumerus -54.3315 -27.8879 65.0365
lradius 22.1017
lwrist 46.9617
lhand -46.957 37.0822
lfingers 7.12502
lthumb -19.6659 66.1075
rfemur 6.50906 1.70138 28.0734
rtibia 29.2368
rfoot -18.0875 -20.0718
rtoes 0.913226
lfemur 10.0426 0.751775 -13.8623
ltibia 21.5993
lfoot -12.3547 -4.15626
ltoes -14.6991
82
root 0.271266 17.4976 1.58537 167.726 -3.06592 -175.591
lowerback 12.865 -2.51747 4.24563
upperback 5.82415 -3.64195 2.11148
thorax -1.17674 -2.13346 0.316372
lowerneck -1.72061 -4.65664 -11.829
upperneck -1.45648 -5.96905 9.05009
head 0.483787 -2.91429 4.54343
rclavicle 8.59744e-015 2.10712e-014
rhumerus -50.6184 36.2019 -77.2854
rradius 29.883
rwrist -79.9021
rhand -51.6463 -25.2346
rfingers 7.12502
rthumb -24.1684 -53.732
lclavicle 8.59744e-015 2.10712e-014
lhumerus -52.8824 -26.6512 69.0561
lradius 21.7687
lwrist 48.1131
lhand -46.4742 36.152
lfingers 7.12502
lthumb -19.2017 65.2241
rfemur 6.64913 1.55834 28.1069
rtibia 29.217
rfoot -17.9854 -20.0299
rtoes 1.08557
lfemur 10.1234 0.818363 -13.7524
ltibia 21.6484
lfoot -12.2041 -4.32459
ltoes -14.8311
83
root 0.276046 17.4957 1.62858 167.422 -3.11562 -175.563
lowerback 13.2307 -2.43187 4.48318
upperback 6.16377 -3.56528 2.08219
thorax -1.02456 -2.1165 0.150983
lowerneck -2.73824 -4.91634 -11.7487
upperneck -1.70613 -6.17666 9.07053
head 0.59576 -2.98292 4.50847
rclavicle -5.37216e-014 2.54444e-014
rhumerus -52.2893 40.3457 -84.7586
rradius 31.5355
rwrist -84.3724
rhand -52.2027 -25.5718
rfingers 7.12502
rthumb -24.7018 -53.9972
lclavicle -5.37216e-014 2.54444e-014
lhumerus -51.1892 -25.8112 73.0052
lradius 21.3064
lwrist 49.221
lhand -45.852 35.0503
lfingers 7.12502
lthumb -18.6034 64.1807
rfemur 6.81963 1.40762 28.1097
rtibia 29.1993
rfoot -17.8446 -19.9702
rtoes 1.12496
lfemur 10.2598 0.778936 -13.7099
ltibia 21.6952
lfoot -12.082 -4.36646
ltoes -14.6336
84
root 0.280481 17.4945 1.671 167.141 -3.14503 -175.518
lowerback 13.4959 -2.32412 4.66329
upperback 6.55133 -3.48299 2.07834
thorax -0.761087 -2.09908 0.0350213
lowerneck -3.79674 -5.16599 -11.4666
upperneck -1.93879 -6.36958 8.96005
head 0.705957 -3.04233 4.39948
rclavicle 5.56597e-015 3.45885e-014
rhumerus -54.3295 45.0605 -92.3541
rradius 33.3688
rwrist -88.3247
rhand -52.8037 -26.4038
rfingers 7.12502
rthumb -25.2777 -54.7491
lclavicle 5.56597e-015 3.45885e-014
lhumerus -49.0512 -25.0732 76.6298
lradius 20.5334
lwrist 49.724
lhand -45.0189 33.7222
lfingers 7.12502
lthumb -17.8019 62.9274
rfemur 6.96172 1.20574 28.1072
rtibia 29.1829
rfoot -17.693 -19.8422
rtoes 1.14671
lfemur 10.3736 0.829833 -13.6221
ltibia 21.7421
lfoot -11.941 -4.46206
ltoes -14.6675
85
root 0.283543 17.4928 1.71498 166.862 -3.17093 -175.461
lowerback 13.6758 -2.18948 4.78503
upperback 7.03472 -3.40146 2.09206
thorax -0.344637 -2.08749 -0.0387576
lowerneck -5.10812 -5.42651 -11.0217
upperneck -2.02161 -6.56402 8.79864
head 0.89236 -3.09684 4.23946
rclavicle 1.8487e-014 -1.98785e-014
rhumerus -56.0557 49.8152 -99.3744
rradius 34.8782
rwrist -91.2761
rhand -53.198 -27.4449
rfingers 7.12502
rthumb -25.6554 -55.7363
lclavicle 1.8487e-014 -1.98785e-014
lhumerus -46.9258 -25.0114 80.3746
lradius 20.1904
lwrist 50.1653
lhand -44.3209 32.7835
lfingers 7.12502
lthumb -17.1301 62.0483
rfemur 7.09938 1.07297 28.1321
rtibia 29.1658
rfoot -17.5668 -19.7555
rtoes 1.28966
lfemur 10.4892 0.794996 -13.5591
ltibia 21.7895
lfoot -11.8338 -4.46988
ltoes -14.7739
86
root 0.287464 17.4928 1.76013 166.631 -3.17429 -175.386
lowerback 13.7732 -2.02161 4.88536
upperback 7.54115 -3.29163 2.11272
thorax 0.144662 -2.06253 -0.102654
lowerneck -6.57246 -5.67521 -10.4186
upperneck -1.96803 -6.75042 8.60123
head 1.13362 -3.14452 4.03707
rclavicle -8.49804e-015 -3.22031e-014
rhumerus -57.5042 54.5118 -105.735
rradius 36.0477
rwrist -93.416
rhand -53.3597 -28.4401
rfingers 7.12502
rthumb -25.8103 -56.7091
lclavicle -8.49804e-015 -3.22031e-014
lhumerus -44.5444 -25.6298 84.1363
lradius 19.6387
lwrist 50.3562
lhand -43.7932 31.9454
lfingers 7.12502
lthumb -16.6221 61.2536
rfemur 7.17316 0.970814 28.1855
rtibia 29.1455
rfoot -17.4308 -19.684
rtoes 1.32535
lfemur 10.5453 0.822777 -13.4527
ltibia 21.842
lfoot -11.7096 -4.52002
ltoes -14.7412
